<?xml version="1.0" encoding="UTF-8"?>
<!-- Généré par scripts/gen_tray_icon.ts — NE PAS ÉDITER À LA MAIN.
     Silhouette junimo classique (tâche #45), pose de repos.
     Un <rect> par run horizontal de pixels opaques : source vectorielle
     du masque "template" macOS (noir plein + alpha), fidèle pixel pour
     pixel à la grille 32×32 de src/junimo/model.ts. -->
<svg xmlns="http://www.w3.org/2000/svg" viewBox="0 0 32 32" width="32" height="32" shape-rendering="crispEdges">
<g fill="#000000">
<rect x="14" y="2" width="2" height="1"/>
<rect x="15" y="3" width="1" height="1"/>
<rect x="16" y="4" width="1" height="1"/>
<rect x="16" y="5" width="1" height="1"/>
<rect x="8" y="6" width="16" height="1"/>
<rect x="7" y="7" width="18" height="1"/>
<rect x="7" y="8" width="18" height="1"/>
<rect x="6" y="9" width="20" height="1"/>
<rect x="6" y="10" width="20" height="1"/>
<rect x="6" y="11" width="20" height="1"/>
<rect x="5" y="12" width="22" height="1"/>
<rect x="5" y="13" width="22" height="1"/>
<rect x="5" y="14" width="22" height="1"/>
<rect x="5" y="15" width="22" height="1"/>
<rect x="2" y="16" width="28" height="1"/>
<rect x="2" y="17" width="28" height="1"/>
<rect x="4" y="18" width="24" height="1"/>
<rect x="4" y="19" width="24" height="1"/>
<rect x="4" y="20" width="24" height="1"/>
<rect x="4" y="21" width="24" height="1"/>
<rect x="4" y="22" width="24" height="1"/>
<rect x="4" y="23" width="24" height="1"/>
<rect x="4" y="24" width="24" height="1"/>
<rect x="4" y="25" width="24" height="1"/>
<rect x="5" y="26" width="22" height="1"/>
<rect x="5" y="27" width="22" height="1"/>
<rect x="11" y="28" width="2" height="1"/>
<rect x="19" y="28" width="2" height="1"/>
<rect x="11" y="29" width="2" height="1"/>
<rect x="19" y="29" width="2" height="1"/>
</g>
</svg>
